<svg width="57" height="57" viewBox="0 0 57 57" fill="none" xmlns="http://www.w3.org/2000/svg">
<line x1="45.3324" y1="25.9124" x2="31.7983" y2="10.8209" stroke="#3E92CC" stroke-width="2.73602"/>
<line x1="27.0451" y1="11.3454" x2="11.8657" y2="24.9583" stroke="#3E92CC" stroke-width="2.73602"/>
<path d="M6.06724 31.6233C4.54549 29.9264 4.68803 27.2985 6.40922 25.755C8.13041 24.2114 10.7583 24.3548 12.28 26.0517C13.8017 27.7485 13.6592 30.3764 11.938 31.92C10.2168 33.4636 7.58898 33.3202 6.06724 31.6233Z" stroke="#2C5530" stroke-width="2.73602"/>
<path d="M45.2148 31.5104C43.6931 29.8135 43.8356 27.1856 45.5568 25.6421C47.278 24.0985 49.9058 24.2419 51.4276 25.9388C52.9493 27.6356 52.8068 30.2635 51.0856 31.8071C49.3644 33.3506 46.7366 33.2072 45.2148 31.5104Z" stroke="#D8315B" stroke-width="2.73602"/>
<path d="M26.3845 10.6445C24.8628 8.94768 25.0053 6.31979 26.7265 4.77622C28.4477 3.23266 31.0755 3.37606 32.5973 5.07292C34.119 6.76978 33.9765 9.39767 32.2553 10.9412C30.5341 12.4848 27.9062 12.3414 26.3845 10.6445Z" stroke="#0A2463" stroke-width="2.73602"/>
</svg>
