<svg width="103" height="19" viewBox="0 0 103 19" fill="none" xmlns="http://www.w3.org/2000/svg">
<path d="M9.37891 18H0.0742188V1.19531H2.86328V15.6445H9.37891V18ZM20.4156 18.2812C17.9937 18.2812 16.0523 17.4961 14.5914 15.9258C13.1383 14.3555 12.4117 12.3125 12.4117 9.79688C12.4117 7.09375 13.1539 4.9375 14.6383 3.32812C16.1227 1.71875 18.1383 0.914062 20.6852 0.914062C23.0445 0.914062 24.943 1.69531 26.3805 3.25781C27.8258 4.82031 28.5484 6.86328 28.5484 9.38672C28.5484 12.1289 27.8102 14.2969 26.3336 15.8906C24.857 17.4844 22.8844 18.2812 20.4156 18.2812ZM20.5445 3.36328C19.0055 3.36328 17.7516 3.9375 16.7828 5.08594C15.8219 6.23438 15.3414 7.74609 15.3414 9.62109C15.3414 11.4883 15.8102 12.9922 16.7477 14.1328C17.6852 15.2734 18.9117 15.8438 20.4273 15.8438C22.0367 15.8438 23.3062 15.3008 24.2359 14.2148C25.1656 13.1289 25.6305 11.6094 25.6305 9.65625C25.6305 7.64844 25.1773 6.09766 24.2711 5.00391C23.3727 3.91016 22.1305 3.36328 20.5445 3.36328ZM46.9562 11.2031C46.9562 15.9219 44.7219 18.2812 40.2531 18.2812C35.9719 18.2812 33.8312 16.0117 33.8312 11.4727V1.19531H36.6203V10.8984C36.6203 14.1953 37.9016 15.8438 40.4641 15.8438C42.9328 15.8438 44.1672 14.2539 44.1672 11.0742V1.19531H46.9562V11.2031ZM67.5555 18H64.5086L56.4813 5.64844C56.2781 5.33594 56.1102 5.01172 55.9773 4.67578H55.907C55.9695 5.03516 56.0008 5.80469 56.0008 6.98438V18H53.3055V1.19531H56.5516L64.3094 13.2539C64.6375 13.7539 64.8484 14.0977 64.9422 14.2852H64.9891C64.9109 13.8398 64.8719 13.0859 64.8719 12.0234V1.19531H67.5555V18ZM87.2406 16.8516C85.4906 17.8047 83.5414 18.2812 81.393 18.2812C78.9086 18.2812 76.8969 17.5078 75.3578 15.9609C73.8187 14.4141 73.0492 12.3672 73.0492 9.82031C73.0492 7.21875 73.8891 5.08594 75.5687 3.42188C77.2562 1.75 79.3969 0.914062 81.9906 0.914062C83.8578 0.914062 85.4281 1.1875 86.7016 1.73438V4.60547C85.4125 3.74609 83.8773 3.31641 82.0961 3.31641C80.307 3.31641 78.8383 3.90625 77.6898 5.08594C76.5492 6.26562 75.9789 7.79297 75.9789 9.66797C75.9789 11.5977 76.4711 13.1172 77.4555 14.2266C78.4398 15.3281 79.7758 15.8789 81.4633 15.8789C82.6195 15.8789 83.6195 15.6562 84.4633 15.2109V11.2148H80.9242V8.87109H87.2406V16.8516ZM102.695 18H93.2617V1.19531H102.32V3.5625H96.0508V8.32031H101.828V10.6758H96.0508V15.6445H102.695V18Z" fill="#084482"/>
</svg>
